<svg xmlns="http://www.w3.org/2000/svg" width="617.389" height="333.03" viewBox="0 0 617.389 333.03">
  <g id="Group_272" data-name="Group 272" transform="translate(-117.094 -211.79)">
    <path id="Path_840" data-name="Path 840" d="M725.914,542.81l-.088.168c-.195.37-.392.746-.591,1.121l-340.189-.1-21.864-.005-189.019-.059s-.147-.157-.421-.466c-5.89-6.612-70.547-82.491-12.042-164.342q1.5-2.1,3.005-4.111a198.457,198.457,0,0,1,15.654-18.555q1.414-1.483,2.843-2.9t2.877-2.789q1.442-1.367,2.888-2.669,3.413-3.069,6.844-5.792c28.607-22.727,58.157-27.81,85.37-22.293a112.591,112.591,0,0,1,15.755,4.43c.1.035.2.069.3.107.232.082.464.168.7.253.1.037.205.077.309.117q5.739,2.134,11.272,4.841,2.393,1.167,4.745,2.429.587.316,1.17.637c3.564,1.955,7.046,4.073,10.441,6.324a22.048,22.048,0,0,0,2.238,1.3c6.452,3.274,15.873,4.372,27.163,2.31q3.329-.607,6.865-1.588,3.285-.919,6.724-2.174a110.08,110.08,0,0,0,17.253-8.176,154.961,154.961,0,0,0,29.766-22.879q3.732-3.6,7.475-7.638a247.917,247.917,0,0,0,27.962-36.884c12.052-19.192,29.518-32.776,49.77-41.176q1.594-.663,3.21-1.279c34.18-13.078,75.7-11.866,112.5,1.66,1.074.391,2.142.8,3.208,1.215,36.157,14.1,67.332,40.233,81.787,76.464q1.5,3.745,2.749,7.638c7.113,22.107,8.165,47.655.786,76.259C685.164,462.309,766.08,465.559,725.914,542.81Z" transform="translate(-16.002 -0.002)" fill="#fff3e9"/>
    <g id="Group_241" data-name="Group 241" transform="translate(121.373 320.014)">
      <path id="Path_841" data-name="Path 841" d="M338.754,948.145H173.741c-5.89-6.612-70.547-82.49-12.042-164.341q1.5-2.1,3.005-4.111a198.469,198.469,0,0,1,15.654-18.555q1.414-1.483,2.843-2.9t2.877-2.789q1.442-1.367,2.888-2.669,3.413-3.069,6.844-5.792c10.334,7.912,19.973,13.757,27.208,14.413,15.953,1.447,40.68-19.466,58.162-36.706a112.6,112.6,0,0,1,15.755,4.43c.1.035.2.069.3.107.232.082.464.168.7.253l.309.117q5.739,2.134,11.272,4.841,2.393,1.167,4.745,2.43c1.9,19.283,4.654,44.346,7.643,70.438,7.414,64.753,16.238,135.836,16.829,140.581.013.128.024.208.027.24A.049.049,0,0,1,338.754,948.145Z" transform="translate(-137.375 -724.695)" fill="#f9ddbf"/>
      <path id="Path_842" data-name="Path 842" d="M776.776,745.8l-5.64,50.357a.024.024,0,0,1,0,.013l-5.584,49.863s-2.278-1.838-5.315-4.673c-5.531-5.158-13.581-13.608-14.972-20.226-2.017-9.6,27.45-68.027,31.218-75.441C776.579,745.726,776.677,745.761,776.776,745.8Z" transform="translate(-616.919 -741.262)" fill="#ffe3ca"/>
      <path id="Path_843" data-name="Path 843" d="M426.235,875.425c-.293.314-21.3,22.8-32.243,22.565-6.98-.149-23.508-16.728-39.434-34.734q1.434-1.427,2.877-2.789t2.888-2.669c15.809,13.56,31.231,25.242,36.831,24.648,11.2-1.191,24.528-5.485,28.141-6.7C425.873,875.55,426.2,875.436,426.235,875.425Z" transform="translate(-308.732 -829.712)" fill="#ffe3ca"/>
      <path id="Path_844" data-name="Path 844" d="M420.238,881.147c-.759.829-33.269,36.178-41.8,37.148-4.095.464-20.854-20.244-37.348-42.159q1.415-1.483,2.843-2.9t2.877-2.79c16.12,16.262,31.878,30.874,36.943,31.4,8.078.834,22.866-9.764,30.917-16.117C417.883,883.19,420.025,881.331,420.238,881.147Z" transform="translate(-298.103 -839.694)" fill="#f4d4b5"/>
      <path id="Path_845" data-name="Path 845" d="M621.416,844.076s-42.8,58.631-53.188,59.69c0,0,5.018,9.889,18.86,5.651S621.416,844.076,621.416,844.076Z" transform="translate(-477.317 -818.886)" fill="#f4d4b5"/>
      <path id="Path_846" data-name="Path 846" d="M557.606,911.894s-5.289-1.808-1.434-6.271,41.9-38.689,53.02-51.246C609.193,854.377,571.668,912.5,557.606,911.894Z" transform="translate(-466.696 -827.014)" fill="#ffe3ca"/>
      <path id="Path_847" data-name="Path 847" d="M338.754,966.056H173.741c-5.89-6.612-70.547-82.491-12.042-164.341q1.5-2.1,3.005-4.111c6.647,13.12,14.309,25.032,22.453,31.633,18.833,15.265,44.25,20.332,64.4,24.648A28.579,28.579,0,0,0,284.1,836.507a81.067,81.067,0,0,0,5.155-20.124c.794-6.447,1.582-12.8,2.336-18.87a.025.025,0,0,0,0-.013c3.1-24.816,5.7-45.186,6.335-50.1.1.037.205.078.309.117.858,6.583,4.982,38.312,9.407,74.091.773,6.255,4.641-12.78,4.207-19.067-1.548-22.357-2.2-38.515-2.342-50.183q2.393,1.167,4.745,2.429.587.316,1.17.637c8.666,77.133,22.6,203.97,23.3,210.382.013.128.024.208.027.24A.049.049,0,0,1,338.754,966.056Z" transform="translate(-137.375 -742.606)" fill="#efcbab"/>
    </g>
    <path id="Path_848" data-name="Path 848" d="M1226.527,775.918v210.8a3.21,3.21,0,0,1-3.2,3.2h-17.583a3.2,3.2,0,0,1-3.2-3.2V786.268q3.285-.919,6.724-2.174A110.084,110.084,0,0,0,1226.527,775.918Z" transform="translate(-856.423 -445.096)" fill="#efcbab"/>
    <path id="Path_849" data-name="Path 849" d="M1591.478,542.808H1234.417V339c14.325-5.251,30.541-15.113,47.019-31.055q3.732-3.6,7.475-7.638a237.75,237.75,0,0,0,21.827-27.523q2.9-4.24,5.765-8.776c.125-.194.248-.392.37-.586,12.052-19.192,29.518-32.776,49.77-41.176q1.594-.663,3.21-1.279,5.411-2.07,11.053-3.663,1.53-.436,3.072-.834l.075-.019c27.1-6.985,57.461-5.992,85.89,2.131q1.578.452,3.149.93,4.672,1.431,9.258,3.114c1.074.391,2.142.8,3.208,1.215,22.64,8.831,43.326,22.378,59.177,40.166q3.768,4.228,7.161,8.776a121.058,121.058,0,0,1,15.449,27.523q1.5,3.745,2.749,7.638c7.113,22.107,8.166,47.655.786,76.259C1550.728,462.307,1631.644,465.558,1591.478,542.808Z" transform="translate(-881.566 0)" fill="#fff3e9"/>
    <path id="Path_850" data-name="Path 850" d="M1591.478,770.876H1234.417V567.067c14.325-5.251,30.541-15.113,47.019-31.055q3.732-3.6,7.475-7.638a237.733,237.733,0,0,0,21.827-27.523h241.158q3.325,4.464,6.256,9.226a119.72,119.72,0,0,1,9.193,18.3q1.5,3.745,2.749,7.638c7.113,22.107,8.166,47.655.786,76.259C1550.728,690.376,1631.644,693.626,1591.478,770.876Z" transform="translate(-881.566 -228.069)" fill="#fcecdb"/>
    <path id="Path_851" data-name="Path 851" d="M1666.811,874.352l-233.1-14.891s6.037-16.971,12.582-31.608l.076-.178c4.718-10.553,9.69-19.837,12.811-20.547,4.312-.964,8.929,2.258,15.372,5.378h.025c7.61,3.678,17.808,7.2,33.053,3.349,17.453-4.439,32.927-34.931,43.834-59.435,7.712-17.326,13.14-31.684,15.373-31.684,2.156,0,9.792,13.267,17.782,26.281,7.865,12.861,16.109,25.469,19.761,24.885,7.357-1.218,11.72-13.749,16.159-13.7,7.407.1,11.263,36.935,22.45,34.271,11.162-2.689,13.368,1.649,20.471,3.678S1666.811,874.352,1666.811,874.352Z" transform="translate(-1038.809 -404.714)" fill="#b3d6ff"/>
    <path id="Path_852" data-name="Path 852" d="M1234.417,1302.657a19.68,19.68,0,0,1,14.175,2.665c6.684,4.439,18.422-.565,21.978,7.565l-36.153,7.441Z" transform="translate(-881.566 -860.416)" fill="#d0dff1"/>
    <path id="Path_853" data-name="Path 853" d="M1234.417,1212.262s24.8-8.606,66.254-4.7,77.056,15.154,108.934-10.131,63.821-34,84.974-28.139,42.032,67.1,22.055,127.989H1234.417Z" transform="translate(-881.566 -754.085)" fill="#c5eadb"/>
    <g id="Group_244" data-name="Group 244" transform="translate(195.813 327.629)">
      <g id="Group_242" data-name="Group 242" transform="translate(0)">
        <path id="Path_854" data-name="Path 854" d="M561.012,884.274c-.58-.591-4.813-1.687-4.813-1.687h0s-6.764-13.741-11.045-20.849c-1.468-2.44-2.472-11.887-3.5-17.029v0s-.613-4.545-2.76-7.065c-1.436-1.681-9.122-2.488-9.122-2.488s0,.008,0,.013l-.717-.149a1.71,1.71,0,0,1-1.529-1.337c0-.037-.008-.077-.013-.115a23.718,23.718,0,0,1-.1-2.7v-.035c.011-.618.035-1.162.061-1.569.032-.479.061-.772.061-.772l-.024,0-8.053-1.295c0,.085-.008.171-.011.253,0,0,0,0,0,0-.112,2.387-.253,4.18-.4,5.525a2.213,2.213,0,0,1-2.059,1.966c-.16.008-.325.021-.485.032v0s-5.192-.2-7.18.4c-2.238.684-7.2,6.093-7.2,6.093l.027.021c-5.954,5.848-12.313,14.16-11.962,15.745.5,2.233,8.941,14.916,12,17.255-.008.011-3.065,3.872-3.065,4.575a8.411,8.411,0,0,0,1.005,3.442c-3.87,7.166-3.977,11.122-3.977,11.122a14.128,14.128,0,0,0-.248,2.488v.035c.032,6.426,11.115,36.423,11.538,41.037s.647,16.906,8.1,36.5h0a17.518,17.518,0,0,1-.693,3.88A10.269,10.269,0,0,1,510.7,981.2c-1.986.745-7.668.359-8.109,2.423h20.024a14.154,14.154,0,0,0-.5-5.131c-.769-2.028-1.647-4.789-1.654-4.812h0s2.408-25.655-.735-39.863c0,0-.043-.141-.1-.421l0,0a19.2,19.2,0,0,1,.456-7.609c.5,3.373.869,6.183,1.039,8.008.743,7.939,22.341,39.159,22.341,39.159-.274,1.8,1.159,4.936,1.047,6.591a11.759,11.759,0,0,0,.885,4.079s1.937.008,4.119.014c2.7.008,5.786.01,6.031-.014.44-.043-3.2-5.182-3.751-6.394a40.675,40.675,0,0,0-2.786-4.268l-.006-.008c-5.627-34.164-12.907-34.678-13.035-38.651a102.061,102.061,0,0,1,1.447-10.749c1.7-10.648,4.2-25.623,3.314-29.587-.173-.775-.394-1.625-.642-2.515-.663-2.568-1.662-6.372-2.123-7.758-1.036-3.117-4.255-10.877-4.255-10.877l-.077.024c-.749-2.068-1.5-4.1-1.71-4.585a8.022,8.022,0,0,1-.085-2.153c.173-.029,2-5.493,3.181-9.2a8.233,8.233,0,0,0,.357-1.487v-.011c1.025,4.929,2.3,9.839,3.705,12.327,2.7,4.8,14.6,17.077,14.6,17.077h0c.492,1.055,2.757,1.532,4.346,3.279a6.069,6.069,0,0,0,4.633,1.407C563.25,889.457,561.591,884.865,561.012,884.274ZM507.2,872.026c-.04-.024-.061-.035-.061-.035-.128.162-.253.325-.376.485q-.8,1.027-1.515,2.008h0a.024.024,0,0,1-.005-.01c-.205-.469-6.788-15.5-6.873-16.736-.075-1.079,5.818-5.067,10.7-8.557a1.4,1.4,0,0,1-.1.89s0,0,0,0c-.426,1.185-1.62,3.048-.7,6.039,2.24,7.318,2.094,8.309,2.094,8.309.048.035.1.069.149.1.115.97.258,1.982.445,3.053C510.952,867.58,510.566,868.533,507.2,872.026Z" transform="translate(-490.169 -813.18)" fill="#b3d6ff"/>
        <path id="Path_855" data-name="Path 855" d="M637,833.563c-3.35-.452-8.061-6.373-8.061-6.373l8.079,1.071s-.01.079-.025.223a20.875,20.875,0,0,0-.1,2.345.139.139,0,0,0,0,.035A23.53,23.53,0,0,0,637,833.563Z" transform="translate(-599.658 -813.178)" fill="#97bbef"/>
        <path id="Path_856" data-name="Path 856" d="M628.471,776.277s-9.412,3.141-11.278-2.75-4.337-9.454,1.593-11.708,7.816-.378,8.917,1.437S630.871,775.308,628.471,776.277Z" transform="translate(-588.706 -760.786)" fill="#b3d6ff"/>
      </g>
      <g id="Group_243" data-name="Group 243" transform="translate(0.582 170.462)">
        <rect id="Rectangle_67" data-name="Rectangle 67" width="62.474" height="44.72" transform="translate(15.327)" fill="#9fc1f4"/>
        <rect id="Rectangle_68" data-name="Rectangle 68" width="62.474" height="44.717" transform="translate(0 0.001)" fill="#bdd8ff"/>
        <path id="Path_857" data-name="Path 857" d="M549.23,1568.662l-56.3,19.646v-19.646Z" transform="translate(-492.928 -1568.661)" fill="#afcdfb"/>
      </g>
      <path id="Path_858" data-name="Path 858" d="M522.577,939.963c.085,1.236,6.668,16.267,6.873,16.736-.314-.426-10.275-14.061-8.354-17.82,1.953-3.818,12.183-7.473,12.183-7.473C528.4,934.9,522.5,938.884,522.577,939.963Z" transform="translate(-514.377 -895.405)" fill="#95baef"/>
      <path id="Path_859" data-name="Path 859" d="M668.9,1029.11a101.991,101.991,0,0,0-1.447,10.749c-5.408-3.516-3.386-33.026-2.987-38.363.261-3.5-3.469-11.554-5.818-18.427-.357-1.042-.679-2.057-.954-3.024a15.813,15.813,0,0,1-.82-5.981c.89-6.175,9.985-13.089,9.985-13.089a8.226,8.226,0,0,1-.357,1.487c-1.178,3.7-3.008,9.167-3.181,9.2a8.024,8.024,0,0,0,.085,2.153c.211.482.962,2.517,1.71,4.585l.077-.024s3.218,7.76,4.255,10.878c.461,1.385,1.46,5.189,2.123,7.758.248.89.469,1.74.642,2.515C673.1,1003.487,670.607,1018.461,668.9,1029.11Z" transform="translate(-621.651 -918.735)" fill="#95baef"/>
      <path id="Path_860" data-name="Path 860" d="M594.527,1190.47c-.144-.232-9.537-15.161-9.436-23.806.1-8.712,1.875-13.648,1.875-13.648s7.577,17.141,8.016,29.846A19.2,19.2,0,0,0,594.527,1190.47Z" transform="translate(-565.062 -1070.255)" fill="#95baef"/>
      <path id="Path_861" data-name="Path 861" d="M775.591,1528.7c-.245.024-3.327.021-6.031.014,3.53-2.017-.381-10.4-.506-10.675a40.7,40.7,0,0,1,2.786,4.268C772.391,1523.523,776.03,1528.662,775.591,1528.7Z" transform="translate(-710.208 -1358.26)" fill="#95baef"/>
    </g>
    <g id="Group_245" data-name="Group 245" transform="translate(526.12 480.624)">
      <path id="Path_862" data-name="Path 862" d="M2113.421,1548.154h-48.737l7.646-62.275h48.737Z" transform="translate(-2062.767 -1485.879)" fill="#d39e7a"/>
      <path id="Path_863" data-name="Path 863" d="M2104.338,1548.154H2055.6l7.646-62.275h48.737Z" transform="translate(-2055.6 -1485.879)" fill="#efcbab"/>
      <path id="Path_864" data-name="Path 864" d="M2114.045,1555.973h-43.02l6.888-56.1h43.019Z" transform="translate(-2067.769 -1496.922)" fill="#f9ddbf"/>
      <path id="Path_865" data-name="Path 865" d="M2127.364,1629.166h-44.555l.386-3.141h44.555Z" transform="translate(-2077.066 -1596.454)" fill="#efcbab"/>
      <path id="Path_866" data-name="Path 866" d="M2086.439,1495.158l1.139-9.28h9.28Z" transform="translate(-2079.931 -1485.879)" fill="#e5bd9e"/>
      <path id="Path_867" data-name="Path 867" d="M2286.978,1495.158l1.14-9.28h-9.28Z" transform="translate(-2231.733 -1485.879)" fill="#e5bd9e"/>
      <path id="Path_868" data-name="Path 868" d="M2064.875,1746.358h-9.28l1.14-9.28Z" transform="translate(-2055.596 -1684.074)" fill="#e5bd9e"/>
      <path id="Path_869" data-name="Path 869" d="M2242.594,1746.358h9.28l1.14-9.28Z" transform="translate(-2203.136 -1684.074)" fill="#e5bd9e"/>
    </g>
    <g id="Group_246" data-name="Group 246" transform="translate(548.567 495.573)">
      <path id="Path_870" data-name="Path 870" d="M2206.61,1604.035h-37.026l5.809-47.311h37.026Z" transform="translate(-2167.979 -1556.724)" fill="#d39e7a"/>
      <path id="Path_871" data-name="Path 871" d="M2199.008,1604.035h-37.025l5.809-47.311h37.026Z" transform="translate(-2161.981 -1556.724)" fill="#efcbab"/>
      <path id="Path_872" data-name="Path 872" d="M2206.383,1609.976H2173.7l5.232-42.618h32.682Z" transform="translate(-2171.227 -1565.114)" fill="#f9ddbf"/>
      <path id="Path_873" data-name="Path 873" d="M2216.5,1665.58h-33.848l.293-2.387h33.849Z" transform="translate(-2178.29 -1640.728)" fill="#efcbab"/>
      <path id="Path_874" data-name="Path 874" d="M2185.411,1563.774l.866-7.05h7.05Z" transform="translate(-2180.467 -1556.724)" fill="#e5bd9e"/>
      <path id="Path_875" data-name="Path 875" d="M2337.761,1563.774l.865-7.05h-7.05Z" transform="translate(-2295.791 -1556.724)" fill="#e5bd9e"/>
      <path id="Path_876" data-name="Path 876" d="M2169.029,1754.612h-7.05l.866-7.05Z" transform="translate(-2161.979 -1707.295)" fill="#e5bd9e"/>
      <path id="Path_877" data-name="Path 877" d="M2304.042,1754.612h7.05l.865-7.05Z" transform="translate(-2274.067 -1707.295)" fill="#e5bd9e"/>
    </g>
    <path id="Path_878" data-name="Path 878" d="M1311.345,553.994c-12.076,11.368-42.782,12.875-41.117,38.757,1.577,24.459-32.1,31.926-35.811,32.675V567.067c14.325-5.251,30.541-15.113,47.019-31.055q3.732-3.6,7.475-7.638a237.733,237.733,0,0,0,21.827-27.523h12.487C1328.786,522.134,1323.083,542.946,1311.345,553.994Z" transform="translate(-881.566 -228.069)" fill="#c1dfd4"/>
    <path id="Path_879" data-name="Path 879" d="M1234.417,1578.864s24.587-5.3,34.139,10.226,23.341,21.206,34.828,13.837,43.125,2.413,43.557,19.1H1234.417Z" transform="translate(-881.566 -1077.931)" fill="#c1dfd4"/>
    <g id="Group_248" data-name="Group 248" transform="translate(403.17 339.249)">
      <path id="Path_880" data-name="Path 880" d="M1529.89,881.266s-2.72-4.7-1.388-7.478,2.545-3.512,3.271-2.18.817,8.468.817,8.468Z" transform="translate(-1516.48 -859.336)" fill="#ffb27d"/>
      <g id="Group_247" data-name="Group 247">
        <path id="Path_881" data-name="Path 881" d="M1515.008,864.169l-.256.235a.671.671,0,0,1-.931.047L1493.3,843.059l2.292-2.109,19.543,22.25A.7.7,0,0,1,1515.008,864.169Z" transform="translate(-1488.998 -835.655)" fill="#ed7d2b"/>
        <path id="Path_882" data-name="Path 882" d="M1489.773,834.771l-2.291,2.109-1.557-1.376,2.592-2.386Z" transform="translate(-1483.176 -829.476)" fill="#e5bd9e"/>
        <path id="Path_883" data-name="Path 883" d="M1475.645,821.883s-2.555-.39-2.734-2.195,1.275-2.7.81-3.834a3.589,3.589,0,0,1,2.182,1.393,12.54,12.54,0,0,0,2.334,2.249Z" transform="translate(-1472.896 -815.855)" fill="#c6916d"/>
      </g>
      <path id="Path_884" data-name="Path 884" d="M1798.79,1264.651c-.284,2.132,35.788,75.822,36.054,89.417l5.24.274s0-36.608-10.219-51.068a9.105,9.105,0,0,1-1.667-4.948c-.388-11.384-2.7-51.489-15.959-50.031C1796.79,1249.994,1798.79,1264.651,1798.79,1264.651Z" transform="translate(-1729.959 -1157.019)" fill="#ffb27d"/>
      <path id="Path_885" data-name="Path 885" d="M1844.583,1319.54c-1.918,6.967-17.354,10.187-17.354,10.187l-1.151-3.394-.25-.735-6.788-20.021-2.64-7.787-6.975-20.558s3.911-23.849,13.414-27.755,17.266,48.177,17.09,50.309S1844.583,1319.54,1844.583,1319.54Z" transform="translate(-1738.417 -1157.817)" fill="#2b478b"/>
      <path id="Path_886" data-name="Path 886" d="M1926.11,1745.035h16.835a9.243,9.243,0,0,0-.476-4.513c-.843-1.868-1.9-2.527-1.925-5.1a5.958,5.958,0,0,1-5.168,2.13,18.464,18.464,0,0,1-2.921,3.786C1931.354,1742.131,1926.449,1741.849,1926.11,1745.035Z" transform="translate(-1830.481 -1541.394)" fill="#233862"/>
      <path id="Path_887" data-name="Path 887" d="M1862.03,1405.8l-.25-.735-6.788-20.021,1.2-8.751c.123-11.123,5.881-27.321,8.988-26.256C1865.182,1350.041,1860.247,1368.968,1862.03,1405.8Z" transform="translate(-1774.369 -1237.288)" fill="#233862"/>
      <path id="Path_888" data-name="Path 888" d="M1845.863,1036.168s18.734,19.584,21.82,23.982,9.477,23.773,9.477,23.773l-3.527.718s-11.24-19.463-12.122-20.66-15.649-11.114-15.649-11.114Z" transform="translate(-1767.167 -989.682)" fill="#ffb27d"/>
      <path id="Path_889" data-name="Path 889" d="M1831.7,1063.3s-2.1,2.659-7.188,1.777c0,0-.65-1.116-.961-1.249-.187-.08-9.242-6.442-16.5-11.552-4.888-3.439-8.962-6.311-8.962-6.311l10.081-9.8s21.409,22.21,22.173,24.065S1831.7,1063.3,1831.7,1063.3Z" transform="translate(-1729.471 -989.678)" fill="#f99746"/>
      <path id="Path_890" data-name="Path 890" d="M1857.059,1107.736c-.187-.08-9.242-6.442-16.5-11.552a.034.034,0,0,1,0-.016,9.219,9.219,0,0,1,3.2-4.35S1855.794,1102.874,1857.059,1107.736Z" transform="translate(-1762.982 -1033.589)" fill="#ed7d2b"/>
      <path id="Path_891" data-name="Path 891" d="M1774.709,1002.759h-9.524a33.158,33.158,0,0,1-2.054-6.684,34.281,34.281,0,0,1-.555-4.031c-.055-.77-.055-1.212-.055-1.212l8.171-2.7.927,3.378Z" transform="translate(-1701.409 -951.784)" fill="#ffb27d"/>
      <path id="Path_892" data-name="Path 892" d="M1771.827,1002.847s-3.274,4.265-8.488,4.561a34.2,34.2,0,0,1-.554-4.031A18.375,18.375,0,0,1,1771.827,1002.847Z" transform="translate(-1701.618 -963.117)" fill="#ed985f"/>
      <path id="Path_893" data-name="Path 893" d="M1744.606,946.367s9.751,4.83,12.665-1.288,6.136-9.616.034-12.958-8.433-1.589-9.9.217S1742.145,944.952,1744.606,946.367Z" transform="translate(-1686.635 -906.097)" fill="#ffb27d"/>
      <path id="Path_894" data-name="Path 894" d="M1772.249,1235.917s-1.4,45.809-1.39,59.5.6,45.213.6,45.213l2.61,1.008,2.637-3.015s9.507-36.045,8.641-41.053c-2.149-12.432,13.72-24.154-2.814-60.164C1777.743,1226.97,1772.249,1235.917,1772.249,1235.917Z" transform="translate(-1707.988 -1144.467)" fill="#ffb27d"/>
      <path id="Path_895" data-name="Path 895" d="M1729.793,1745.492h16.835a9.245,9.245,0,0,0-.476-4.512c-.843-1.868-2.162-2.717-1.846-4.977a6.063,6.063,0,0,1-5.247,2.007,18.464,18.464,0,0,1-2.921,3.786C1735.037,1742.587,1730.131,1742.306,1729.793,1745.492Z" transform="translate(-1675.588 -1541.85)" fill="#233862"/>
      <path id="Path_896" data-name="Path 896" d="M1581.334,953.3s-25.47-4.808-29.819-8.241-15.063-29.716-15.063-29.716l2.7-1.189s17.687,24.5,18.916,25.182,20.12-1.174,23.266,1.759S1581.334,953.3,1581.334,953.3Z" transform="translate(-1523.042 -893.413)" fill="#ffb27d"/>
      <path id="Path_897" data-name="Path 897" d="M1753.244,1279.884c-.145.436-.9,14.657,1.333,38.234,1.484,15.688.344,32.1,1.226,36.947,0,0,9.208,1.06,14.665-2.314,0,0,12.965-73.281,5.594-75.767S1753.244,1279.884,1753.244,1279.884Z" transform="translate(-1693.901 -1179.167)" fill="#2b478b"/>
      <path id="Path_898" data-name="Path 898" d="M1630.257,1015.5l-10.145,16.043a.58.58,0,0,0-.059-.208.011.011,0,0,1,0-.008c-1.276-2.659-21.643-8.594-23.068-9.5-1.465-.932-3.41-4.63-3.41-4.63.786-4.23,5.59-6.828,5.59-6.828s3.9,4.044,4.347,4.532,14.719-.466,18.849-.6A24.393,24.393,0,0,1,1630.257,1015.5Z" transform="translate(-1568.11 -969.325)" fill="#f99746"/>
      <path id="Path_899" data-name="Path 899" d="M1632.8,1074.172c-1.276-2.658-21.642-8.594-23.068-9.5C1609.734,1064.672,1630.053,1065.138,1632.8,1074.172Z" transform="translate(-1580.861 -1012.171)" fill="#ed7d2b"/>
      <path id="Path_900" data-name="Path 900" d="M1758.062,1086.743l-.008.011a1.967,1.967,0,0,1-.656.578c-12.656,6.962-28.018,3.061-32.725,1.444a2.379,2.379,0,0,1-1.6-2.23c-.234-21.87-5.179-23.724-5.941-34.774s1.647-17.9,1.647-17.9l8.584-.551a19.637,19.637,0,0,0,7.811.94,5.6,5.6,0,0,0,2.227-1.076s5.531-.49,6.777.536c5.558,4.574,5.773,21.43,5.595,32.523-.094,5.733,2.376,8.6,4.164,11.277,1.692,2.534,3.282,5.275,4.255,7A2.062,2.062,0,0,1,1758.062,1086.743Z" transform="translate(-1665.477 -987.238)" fill="#f99746"/>
      <path id="Path_901" data-name="Path 901" d="M1874.278,1210.8s-.005.008-.008.011c-1.433,1.526-8.291-5.723-9.623-9.985s1.337-10.523,1.337-10.523c-.093,5.733,2.376,8.6,4.164,11.277,1.692,2.533,3.282,5.275,4.255,7A2.063,2.063,0,0,1,1874.278,1210.8Z" transform="translate(-1781.693 -1111.292)" fill="#ed7d2b"/>
      <path id="Path_902" data-name="Path 902" d="M1977.479,1263.211s.663,4.3,1.729,5.5,4.063,3.463,4.529,2.131-1.466-4.856-1.4-5.425,1.4.882,1.8.656-3.131-3.575-3.131-3.575Z" transform="translate(-1871.011 -1168.252)" fill="#ffb27d"/>
      <path id="Path_903" data-name="Path 903" d="M1760.124,919.221s-3.9-.856-4.748,2.2,3.416,6.762,4.748,8.973,4.214,8.809,5.771,8.973,5.722-6.362,7.368-7.828,3.245-8.392-2.216-10.79A21.679,21.679,0,0,0,1760.124,919.221Z" transform="translate(-1695.685 -897.291)" fill="#a53d38"/>
      <path id="Path_904" data-name="Path 904" d="M1786.758,957.68c-6.768,2.05-6.013,8.933-6.013,8.933s-9.235-1.82-10.3-6.926c-1.225-5.87,1.022-9.325,1.022-9.325-2.006.6-2.925,2.789-3.354,4.915a9.366,9.366,0,0,1,2.464-7.313c4.9-5.474,12.324-5.384,9.77-8.837-7.356-9.945-2.046-21.182-2.046-21.182s2.6-2.123,8.973-.7,8.232,10.31,7.193,14.072c-2.358,8.525.266,8.392,2.8,13.72S1792.715,955.875,1786.758,957.68Z" transform="translate(-1705.783 -895.463)" fill="#a53d38"/>
      <path id="Path_905" data-name="Path 905" d="M1540.553,895.511a4.4,4.4,0,0,0,.907-1.719c.178-.888.4-3.554-.266-3.241s-.888,3.647-2.531,2.468S1540.553,895.511,1540.553,895.511Z" transform="translate(-1524.442 -874.77)" fill="#ffb27d"/>
      <path id="Path_906" data-name="Path 906" d="M1756.057,924.065s-3.429,3.46,3.586,13.519c0,0-1.021-4.542,2.176-5.208S1756.057,924.065,1756.057,924.065Z" transform="translate(-1695.648 -901.232)" fill="#a53d38"/>
    </g>
    <g id="man" transform="translate(256.333 407.848)">
      <g id="Group_254" data-name="Group 254" transform="translate(0 0)">
        <path id="Path_907" data-name="Path 907" d="M847.526,1381.814s-4.129-.133-5.328,1-3.6,3.6-1.932,5,5.328-.483,5.728-.774a18.057,18.057,0,0,1,2.464-.958Z" transform="translate(-826.465 -1330.991)" fill="#ffb27d"/>
        <path id="Path_908" data-name="Path 908" d="M895.848,1357.457l-22.834,4.211s.4,3.863,1.732,5.195l23.669-.131Z" transform="translate(-852.753 -1311.777)" fill="#ed7d2b"/>
        <g id="Group_249" data-name="Group 249" transform="translate(7.762 43.402)">
          <path id="Path_909" data-name="Path 909" d="M850.033,1383.752h0a.92.92,0,0,1-1.295-.056l-11.071-12.069a.919.919,0,0,1,.056-1.295h0a.919.919,0,0,1,1.295.056l11.071,12.069A.919.919,0,0,1,850.033,1383.752Z" transform="translate(-832.437 -1365.149)" fill="#c6916d"/>
          <path id="Path_910" data-name="Path 910" d="M822.681,1349.731l-6.039,5.54a.642.642,0,0,1-.905-.039l-1.793-1.954a.643.643,0,0,1,.039-.905l6.04-5.54a.643.643,0,0,1,.905.039l1.793,1.954A.643.643,0,0,1,822.681,1349.731Z" transform="translate(-813.776 -1346.666)" fill="#ce9a78"/>
        </g>
        <path id="Path_911" data-name="Path 911" d="M854.254,1380.351s-3.54-.862-4.906-.53,2.045,1.428,2.045,1.428Z" transform="translate(-833.826 -1329.363)" fill="#ffb27d"/>
        <g id="Group_250" data-name="Group 250" transform="translate(0 61.989)">
          <path id="Path_912" data-name="Path 912" d="M777.191,1457.98h0c-.359-.134-.154-.411-.02-.769l7.341-20.794a.7.7,0,0,1,.9-.408h0a.7.7,0,0,1,.408.9l-8.062,20.473C777.619,1457.736,777.549,1458.114,777.191,1457.98Z" transform="translate(-776.99 -1435.709)" fill="#2b478b"/>
          <path id="Path_913" data-name="Path 913" d="M813.106,1435.956l-1.158-.433a.4.4,0,0,1-.234-.513h0a.4.4,0,0,1,.513-.234l1.158.433a.4.4,0,0,1,.234.513h0A.4.4,0,0,1,813.106,1435.956Z" transform="translate(-804.368 -1434.751)" fill="#2b478b"/>
        </g>
        <path id="Path_914" data-name="Path 914" d="M938.35,1737.761H921.893a2.927,2.927,0,0,1,2.414-1.711c2.592-.454,7.092-1.857,6.515-5.6-.585-3.792,5.728-4.282,5.728-4.282S939.176,1736.318,938.35,1737.761Z" transform="translate(-891.318 -1602.692)" fill="#2c3a64"/>
        <g id="Group_251" data-name="Group 251" transform="translate(9.89 72.653)">
          <path id="Path_915" data-name="Path 915" d="M889.819,1509.646a2.948,2.948,0,0,1-.534.846,3.9,3.9,0,0,1-1.363.821c-2.147.885-6.3,1.657-11.51,2.187a161.868,161.868,0,0,1-18.561.729c-2.033-.034-4.074-.106-6.088-.223-14.611-.832-27.887-3.9-27.9-10.794-.017-7.015,22.36-12.224,39.337-15.165,1.757-.305,3.458-.587,5.068-.842,7.9-1.254,13.662-1.91,13.662-1.91s.321.567.838,1.535c.257.482.561,1.06.9,1.719a83.444,83.444,0,0,1,5.583,13.23C890.191,1504.976,890.6,1507.877,889.819,1509.646Z" transform="translate(-823.86 -1485.295)" fill="#2b478b"/>
          <path id="Path_916" data-name="Path 916" d="M948.61,1554.325c-.612.562-1.247,1.118-1.9,1.667-2.147.884-6.3,1.657-11.51,2.187-5.41.55-30.222.582-36.829.468,7.757-12.536,31.289-15.024,32.734-16.686.117-.137,15.561-.156,16.933,4.5C948.983,1549.654,949.388,1552.555,948.61,1554.325Z" transform="translate(-882.651 -1529.974)" fill="#2c3a64"/>
        </g>
        <path id="Path_917" data-name="Path 917" d="M828.887,1562.039s25.21,31.548,26.908,35.365c0,0,6.946.646,8.617-4.316,0,0-12.136-33.894-17.469-36.687S828.887,1562.039,828.887,1562.039Z" transform="translate(-817.937 -1468.296)" fill="#2b478b"/>
        <g id="Group_252" data-name="Group 252" transform="translate(29.095)">
          <path id="Path_918" data-name="Path 918" d="M995.414,1207.56s-7.03,9.621-13.3,10.136a16.726,16.726,0,0,1,2.65-5.9c-.5-.8-.929-1.536-1.3-2.19a37,37,0,0,1-1.776-3.485l2.882-5.215.595-2.8a18.9,18.9,0,0,0,1.695,3.532A13.351,13.351,0,0,0,995.414,1207.56Z" transform="translate(-967.594 -1186.044)" fill="#ffb27d"/>
          <path id="Path_919" data-name="Path 919" d="M987.137,1211.8a8.092,8.092,0,0,1-3.67,8.022,37.007,37.007,0,0,1-1.776-3.485l2.882-5.215C986.877,1210.783,987.137,1211.8,987.137,1211.8Z" transform="translate(-967.594 -1196.266)" fill="#ed975d"/>
          <path id="Path_920" data-name="Path 920" d="M942.473,1182.391s8.818-4.8,5.742-10.25-4.01-9.733-9.77-6.9-5.671,5.528-5.086,7.6S940.1,1183.5,942.473,1182.391Z" transform="translate(-929.253 -1159.411)" fill="#ffb27d"/>
          <path id="Path_921" data-name="Path 921" d="M933.811,1142.856c.049-.137.22-.3.663-.5a1.945,1.945,0,0,0-.939.085,2.475,2.475,0,0,0-2.3-1.461,1.476,1.476,0,0,1,1.042.74c-1.76-.824-4.815-.738-12.028,2.734-9.505,4.575-3.809,9.7-2.245,9.975s3.955-3.05,6.394-3.773,4.231,2.575,5.218,2.742.346-.554,1.239-1.473,1.7.87,1.848,2.179,2.243,2.3,2.243,2.3l.871-2.232c.871-2.232-.406-9.767-1.667-10.991Z" transform="translate(-914.88 -1140.968)" fill="#2b478b"/>
        </g>
        <path id="Path_922" data-name="Path 922" d="M1244.275,1715.568s2.051,3.387,2.528,4.484-.459,3.433-1.866,3.785c-1.24.31-1.426,2.7-1.426,2.7h6.014a1.577,1.577,0,0,0,1.456-.969,25.2,25.2,0,0,0,1.213-5.555c.359-1.857,1.069-3.415.755-5.307s-3.275-2.976-8.674-2.958C1238.343,1711.772,1244.275,1715.568,1244.275,1715.568Z" transform="translate(-1143.597 -1591.316)" fill="#233862"/>
        <path id="Path_923" data-name="Path 923" d="M1046.307,1524.871c-1.711,6.49-5.857,16.942-10.591,26.208a99.763,99.763,0,0,1-7.415,12.517c-2.773,3.851-5.426,6.457-7.619,6.866a2.787,2.787,0,0,1-1.634-.156c-1.261-.539-2.183-2.02-2.832-4.172v0c-4-13.26,2.257-51.929,2.257-51.929s6.307-.054,13,.483c6.938.559,14.292,1.749,15.487,4.285C1047.356,1519.81,1047.081,1521.934,1046.307,1524.871Z" transform="translate(-964.683 -1435.448)" fill="#2b478b"/>
        <path id="Path_924" data-name="Path 924" d="M1018.256,1298.545c-4.535,4.805-37.834-5.136-35.043-7.669.71-.644.467-1.417.756-2.453,1.381-4.915-1.369-13.326-2.548-16.587-.276-.756-.465-1.233-.5-1.33a57.123,57.123,0,0,1-2.566-9.274c-1.1-5.876-1.078-11.34.424-14.687a.363.363,0,0,1,.023-.046c6.238-1.823,9.672-11,9.672-11s19.761,5.613,26.934,33.81c0,0,.37,1.8.828,4.5h0c.138.827.286,1.742.434,2.714.766,5.018,1.21,11.452,1.665,16.242.018.166.033.335.051.508C1018.614,1295.335,1019.009,1297.746,1018.256,1298.545Z" transform="translate(-935.258 -1215.552)" fill="#f99746"/>
        <path id="Path_925" data-name="Path 925" d="M1086.275,1699.2a70.249,70.249,0,0,0-7.04,1.034c-12.905,2.26-38.273,7.446-38.273,7.446a.035.035,0,0,0,0-.01c-.02-.171-.3-2.434-.368-5.352-.1-4.655.347-10.98,3.286-13.132,1.563-1.147,6.345-1.264,12.116-.9,12.162.766,28.708,3.687,28.708,3.687A8.479,8.479,0,0,1,1086.275,1699.2Z" transform="translate(-984.961 -1572.658)" fill="#2b478b"/>
        <path id="Path_926" data-name="Path 926" d="M1076.789,1526.681c-6.713-.212-23.551-8.478-23.275-8.544a80.473,80.473,0,0,1,8.442-1.642c6.938.559,14.291,1.749,15.487,4.285C1077.839,1521.619,1077.563,1523.744,1076.789,1526.681Z" transform="translate(-995.165 -1437.258)" fill="#2c3a64"/>
        <path id="Path_927" data-name="Path 927" d="M1009.673,1326.816s-.391,30.542-11.358,33.657c1.381-4.915-1.369-13.326-2.548-16.587C998.594,1336.031,1003.8,1328.108,1009.673,1326.816Z" transform="translate(-949.605 -1287.602)" fill="#ed7d2b"/>
        <path id="Path_928" data-name="Path 928" d="M1010.068,1242.013s-8.447,1.757-9.272,9.16c-.6,5.391,5.294,17.6,5.294,17.6l1.122-1.122s-5.174-15.072-4.378-17.636c1.021-3.287,5.877-8.206,10.343-6.242Z" transform="translate(-953.539 -1220.692)" fill="#2b478b"/>
        <path id="Path_929" data-name="Path 929" d="M1030.731,1399.545c-4.535,4.805-38.552-5.03-35.761-7.563a5.277,5.277,0,0,0,1.473-2.559c1.381-4.915-1.369-13.326-2.548-16.587-.276-.756-.465-1.233-.5-1.33l1.719-1.716,6.294-6.281a30.944,30.944,0,0,0,5.38,4.507,38.875,38.875,0,0,0,21.921,6.789h0c.138.827.286,1.741.434,2.714.766,5.018,1.21,11.452,1.665,16.242.018.166.033.334.051.508C1031.089,1396.335,1031.484,1398.745,1030.731,1399.545Z" transform="translate(-947.733 -1316.552)" fill="#2b478b"/>
        <path id="Path_930" data-name="Path 930" d="M1008.659,1368.015c-1.259,8.878-4.073,19.626-10.344,21.408,1.381-4.915-1.369-13.326-2.548-16.587.368-1.019.774-2.04,1.218-3.046l6.294-6.281A30.94,30.94,0,0,0,1008.659,1368.015Z" transform="translate(-949.605 -1316.552)" fill="#2c3a64"/>
        <g id="Group_253" data-name="Group 253" transform="translate(4.648 25.392)">
          <path id="Path_931" data-name="Path 931" d="M808.276,1452.456a50.8,50.8,0,0,0-5.377-.951,9.761,9.761,0,0,0-3.155.944c-.034.219-.126.886.341.914s.932-.232.836-.045-1.86.071-1.9.964.688,3.6,2.74,3.7,6.065-2.324,6.411-2.357C811.1,1455.339,808.276,1452.456,808.276,1452.456Z" transform="translate(-799.018 -1411.371)" fill="#ffb27d"/>
          <path id="Path_932" data-name="Path 932" d="M837.981,1303.821c-.706-2.04.278-2.677.278-2.677s20.106-9.535,21.75-10.585,12.7-21.181,12.7-21.181,4.1-8.232,9.316-8.067c4.535.144,7.055,2.971,8.453,5.935a9.5,9.5,0,0,1-1.719,10.566c-6.02,6.371-18.11,18.986-21.243,20.9-6.971,4.262-27.862,7.709-27.862,7.709A6.792,6.792,0,0,1,837.981,1303.821Z" transform="translate(-829.559 -1261.308)" fill="#f99746"/>
        </g>
        <path id="Path_933" data-name="Path 933" d="M1063.958,1742.3c-12.905,2.259-38.274,7.446-38.274,7.446a.042.042,0,0,0,0-.01,2.789,2.789,0,0,1-1.634-.156c-1.261-.539-2.183-2.02-2.832-4.173v0s1.5-.436,4.1-1.021c2.045-.462,4.772-1.013,7.987-1.514C1041.439,1741.6,1052.707,1740.647,1063.958,1742.3Z" transform="translate(-969.684 -1614.723)" fill="#2c3a64"/>
      </g>
    </g>
    <path id="Path_934" data-name="Path 934" d="M2198.376,510.076c-23.015,4.231-58.669,23.327-96.221,22.493-47.954-1.066-56.3-31.719-56.3-31.719H2192.12Q2195.445,505.315,2198.376,510.076Z" transform="translate(-1521.791 -228.069)" fill="#f9ddbf"/>
    <g id="Group_255" data-name="Group 255" transform="translate(479.353 216.45)">
      <path id="Path_935" data-name="Path 935" d="M1928.677,234.729v18.086c0,.474,0,.943.016,1.4v0c0,.029,0,.048,0,.075.005.357.016.7.032,1.044v0c.168,4.151.74,7.222,1.417,7.222h.208c.73,0,1.34-3.57,1.449-8.216v0c.017-.5.021-1,.021-1.527V233.877Z" transform="translate(-1908.69 -233.877)" fill="#efcbab"/>
      <path id="Path_936" data-name="Path 936" d="M1854.692,330.2c-11.455,0-20.742,9.819-20.742,21.932h41.483C1875.434,340.015,1866.148,330.2,1854.692,330.2Z" transform="translate(-1833.951 -309.873)" fill="#efcbab"/>
      <path id="Path_937" data-name="Path 937" d="M1882.738,330.721a8.542,8.542,0,0,0-1.822-.2c-7.463,0-13.514,9.789-13.514,21.863h3.644C1871.046,341.311,1876.136,332.161,1882.738,330.721Z" transform="translate(-1860.344 -310.131)" fill="#fcecdb"/>
    </g>
    <g id="Group_256" data-name="Group 256" transform="translate(568.391 218.582)">
      <path id="Path_938" data-name="Path 938" d="M2353.8,244.907v15.878c0,.522-.008,1.031-.021,1.527v0c-.112,4.646-.719,8.216-1.449,8.216h-.208c-.679,0-1.252-3.072-1.417-7.222v0c-.017-.344-.027-.687-.035-1.044,0-.027,0-.045,0-.075v0c-.01-.456-.016-.924-.016-1.4V243.977Q2352.226,244.429,2353.8,244.907Z" transform="translate(-2330.661 -243.977)" fill="#efcbab"/>
      <path id="Path_939" data-name="Path 939" d="M2276.671,330.2c-11.455,0-20.741,9.819-20.741,21.932h41.483C2297.413,340.015,2288.127,330.2,2276.671,330.2Z" transform="translate(-2255.93 -312.004)" fill="#efcbab"/>
      <path id="Path_940" data-name="Path 940" d="M2304.717,330.721a8.546,8.546,0,0,0-1.822-.2c-7.463,0-13.514,9.789-13.514,21.863h3.643C2293.025,341.311,2298.115,332.161,2304.717,330.721Z" transform="translate(-2282.323 -312.262)" fill="#fcecdb"/>
    </g>
    <g id="Group_267" data-name="Group 267" transform="translate(549.191 385.362)">
      <g id="Group_266" data-name="Group 266" transform="translate(0 0)">
        <path id="Path_941" data-name="Path 941" d="M2638.5,1210.159c-1.222-.113-1.98.17-2.2.627-.024.05-1.566,3.533-3.644,9.808-5.1-.707-17.54-2.161-25.094-.775,1.818-5.069,3.186-7.965,3.228-8.053.219-.457.178-1.478-1.22-1.607-1.223-.113-1.981.17-2.2.627a147.233,147.233,0,0,0-6.141,17.96c-2.732,9.654-4.855,24.982-4.946,42.1-27.048.1-28.221,5.28-28.221,5.28h-.335a.948.948,0,0,0-.914.973h0a.948.948,0,0,0,.914.973h3.22c.008.251,1.776,20.239-5.1,52.81h1.283c9.348-25.834,9.014-48.593,8.611-52.81h11.2c.009.251,1.777,20.239-5.1,52.81h1.283c9.347-25.834,9.014-48.593,8.611-52.81h13.138c-.4,4.217-.737,26.976,8.611,52.81h1.283c-6.874-32.571-5.106-52.558-5.1-52.81h12.609c-.4,4.217-.737,26.976,8.611,52.81h1.283c-6.874-32.571-5.107-52.558-5.1-52.81h.538a.948.948,0,0,0,.914-.973h0a.948.948,0,0,0-.914-.973h-.265a1.043,1.043,0,0,0-.231-.669.858.858,0,0,0,.039-.252c-.541-35.711,12.431-63.168,12.563-63.441C2639.938,1211.309,2639.9,1210.288,2638.5,1210.159Zm-6.417,12.2q-.639,2-1.321,4.3c-4.8-.677-17.437-2.212-25.2-.87.441-1.415.875-2.737,1.293-3.959C2613.655,1220.162,2626.627,1221.621,2632.082,1222.356Zm-6.864,51.667c-2.623-1.283-8.461-2.74-21.441-3.084-1.957-.052-3.8-.08-5.549-.088a161.219,161.219,0,0,1,6.734-43.091c7.073-1.577,20.194-.034,25.287.667-.031.107-.061.212-.091.32C2627.258,1238.993,2625.044,1255.633,2625.218,1274.023Z" transform="translate(-2481.255 -1173.054)" fill="#c6916d"/>
        <g id="Group_259" data-name="Group 259" transform="translate(47.49)">
          <path id="Path_942" data-name="Path 942" d="M2693.994,1041.318s.469-5.96,9.043-4.412c2.266.409,3.824-3.632,7.534-2.192,7.989,3.1,8.459-.993,10.768,4.753.966,2.405,7.112,5.205,5.235,9.362s1.264,6.952-.943,10.209c-1.141,1.686-.678,4.7-6.064,4.806-2.683.054-6.861,5.025-9.872,5.927s-12.051-.4-11.71-4.53c.266-3.223-3.493-2.954-5.8-6.659-2.018-3.239,1.583-4.054-.343-9.289C2690.427,1045.455,2694.1,1044.52,2693.994,1041.318Z" transform="translate(-2627.897 -1034.402)" fill="#1c468a"/>
          <g id="Group_257" data-name="Group 257" transform="translate(0 139.41)">
            <path id="Path_943" data-name="Path 943" d="M2408.978,1709.234c.184,1.993-2.592,2.478-5.807,2.638s-2.243.818-6.648,1.617-6.171-.408-6.49-1c-.284-.528,1.764-1.354,3.947-2.287.275-.117.55-.237.825-.357,2.457-1.08,3.835-3.283,5.75-5.326,1.814-1.934,3.536-8.129,3.536-8.129l5.987-1.278s-1.681,5.575-2.265,7.955a7.373,7.373,0,0,0,.613,4.157A7.825,7.825,0,0,1,2408.978,1709.234Z" transform="translate(-2390.008 -1695.107)" fill="#ffb27d"/>
            <path id="Path_944" data-name="Path 944" d="M2403.172,1757.164c-3.214.16-2.243.818-6.648,1.617s-6.171-.408-6.49-1c-.284-.528,1.764-1.354,3.947-2.287l.034.037a12.545,12.545,0,0,0,6.672.08c2.914-.792,5.732-2.533,7.74-3.1a7.821,7.821,0,0,1,.551,2.014C2409.162,1756.52,2406.387,1757,2403.172,1757.164Z" transform="translate(-2390.008 -1740.4)" fill="#c65447"/>
          </g>
          <path id="Path_945" data-name="Path 945" d="M2512.771,1408.845s-39.78-2.994-47.269,1.732-19.5,59.781-19.5,59.781a4.89,4.89,0,0,0,2.4.773,20.1,20.1,0,0,0,4.931-.738s17.261-24.633,18.478-30.839.919-11.743,3.688-11.891,37.282,4.2,42.5-5,.9-18.3.9-18.3Z" transform="translate(-2434.187 -1326.298)" fill="#163560"/>
          <g id="Group_258" data-name="Group 258" transform="translate(13.687 139.634)">
            <path id="Path_946" data-name="Path 946" d="M2473.847,1710.3c.184,1.994-2.591,2.478-5.806,2.638s-2.243.818-6.648,1.616-6.17-.407-6.49-1c-.284-.528,1.764-1.354,3.947-2.287.275-.117.549-.237.824-.357,2.457-1.08,3.835-3.283,5.751-5.326,1.814-1.935,3.536-8.13,3.536-8.13l5.986-1.279s-1.681,5.575-2.264,7.956a7.371,7.371,0,0,0,.613,4.157A7.847,7.847,0,0,1,2473.847,1710.3Z" transform="translate(-2454.876 -1696.169)" fill="#ffb27d"/>
            <path id="Path_947" data-name="Path 947" d="M2468.041,1758.225c-3.215.161-2.243.819-6.648,1.616s-6.17-.407-6.49-1c-.284-.528,1.764-1.354,3.947-2.287l.034.037a12.543,12.543,0,0,0,6.673.08c2.914-.791,5.732-2.533,7.74-3.1a7.85,7.85,0,0,1,.55,2.014C2474.031,1757.581,2471.255,1758.066,2468.041,1758.225Z" transform="translate(-2454.876 -1741.461)" fill="#c65447"/>
          </g>
          <path id="Path_948" data-name="Path 948" d="M2568.5,1408.079s-35.339,1.673-42.638,6.687-17.158,60.494-17.158,60.494a4.886,4.886,0,0,0,2.425.679,20.1,20.1,0,0,0,4.9-.93s16.29-25.286,17.263-31.535.461-11.77,3.222-12.026,37.417,2.742,42.275-6.651S2568.5,1408.079,2568.5,1408.079Z" transform="translate(-2483.658 -1329.233)" fill="#1c468a"/>
          <path id="Path_949" data-name="Path 949" d="M2724.288,1150.688c-.013-.019-.03-.035-.045-.055a5.585,5.585,0,0,0-.986-.863l-.013-.01h0c-2.887-2.017-8.045-2.448-8.045-2.448v0h0v0s-.564-.054-1.457-.094a26.751,26.751,0,0,1-1.685-8.138l-.511.136-8.6,2.306s.381,2.729.559,5.312c.039.566.068,1.124.081,1.646-.249.091-.479.18-.683.266h0s-4.917.58-6.079,1.83-3.49,9.578-4.076,11.054l33.1.542S2726.681,1153.52,2724.288,1150.688Z" transform="translate(-2628.868 -1116.993)" fill="#ffb27d"/>
          <path id="Path_950" data-name="Path 950" d="M2689.6,1249.833c-3.989.377-17.588-7.883-21.753-10.329a20.97,20.97,0,0,0-6.862-1.991c-3.121-.512-6.038-.857-6.972-1.972-1.111-1.33,2.156-2.8,4.781-4.33a7.247,7.247,0,0,0,2.848-2.345,8.983,8.983,0,0,0,.071-3.7v0c-.032-.322-.074-.66-.119-1.008-1.41,2.932-5.2,6.492-6.852,6.891-1.9.461-3.863-1.643-5.313-3.647-1.079-1.5-1.868-2.948-2.119-3.225-.587-.648,2.361-1.933,3.569-2.9s5.957-19.707,5.957-19.707c.587-1.476,2.913-9.8,4.075-11.054,0,0,4.536,5.541,10.419,5.222,5.841-.313,15.844-5.947,16-6.037h0l.013.01,1.031.918c2.393,2.832,1.562,11.482,1.562,11.482s-4.577,20.177-4.577,22.214c0,3.734,3.086,12.32,4.558,18.5C2690.853,1246.737,2691.143,1249.688,2689.6,1249.833Z" transform="translate(-2592.955 -1156.929)" fill="#bc3f3f"/>
          <path id="Path_951" data-name="Path 951" d="M2741.073,1142.033s.382,2.729.56,5.312c4.867-.463,7.147-5.082,8.039-7.618Z" transform="translate(-2666.998 -1117.503)" fill="#f4a269"/>
          <path id="Path_952" data-name="Path 952" d="M2716.406,1088.722s11.549-.578,11.077-7.765.7-12.1-6.691-12.035-8.645,2.9-9.071,5.339S2713.389,1088.687,2716.406,1088.722Z" transform="translate(-2643.796 -1061.638)" fill="#ffb27d"/>
          <path id="Path_953" data-name="Path 953" d="M2700.141,1297.193c-2.983,5.086,8.091,6.615,9.924,7.692,4.163,2.444,16.893,11.306,20.88,10.93,1.546-.145,1.256-3.1.321-7.01-1.474-6.182-4.559-14.768-4.559-18.5a108.339,108.339,0,0,0-1.583-12.371l-4.8-4.607s-5.141,13.29-10.043,15.468a41.2,41.2,0,0,1-7.223,2.351,9.013,9.013,0,0,1-.072,3.7A7.194,7.194,0,0,1,2700.141,1297.193Z" transform="translate(-2634.302 -1222.911)" fill="#a53d38"/>
          <path id="Path_954" data-name="Path 954" d="M2709.158,1201.8s3.783-5.866,7.75-1.14-2.82,38.513-8.7,40.249c-6.529,1.928-25.39-.309-25.39-.309l.363-2.948s20.079-3.85,20.913-4.922S2707.072,1202.344,2709.158,1201.8Z" transform="translate(-2621.037 -1164.126)" fill="#ffb27d"/>
          <path id="Path_955" data-name="Path 955" d="M2731.825,1063.182s2.76-.644,3.662.7.258,2.094,2.272,2.658,2.7.524,2.5,1.933,2.024,2.457,2.119,3.584a1.974,1.974,0,0,0,1.908,1.772c.886.081.483-14.538-2.94-15.182s-6.725.121-7.732.926S2731.825,1063.182,2731.825,1063.182Z" transform="translate(-2659.701 -1053.339)" fill="#1c468a"/>
          <path id="Path_956" data-name="Path 956" d="M2708.43,1066.6s-2.684-.188-3.169,1.343.161,1.892-.523,2.819a3.667,3.667,0,0,0-.289,2.569s-5.309-9.777.289-10.422S2710.188,1063.4,2708.43,1066.6Z" transform="translate(-2636.306 -1056.756)" fill="#1c468a"/>
          <path id="Path_957" data-name="Path 957" d="M2739.542,1234.206s1.083,9.918,6.56,11.051,13.272-4.264,15.778-21.768,2.613-26.38-3.186-25.937-8.066,5.663-7.92,11.888c.153,6.47-.8,16.033-3.452,17.76S2739.542,1234.206,2739.542,1234.206Z" transform="translate(-2665.79 -1163.115)" fill="#bc3f3f"/>
          <path id="Path_958" data-name="Path 958" d="M2648.429,1378.3s-6.538-1.265-7.276-.949-4.851,4.007-4.429,4.745,2.109,1.266,4.007.633,6.011-.949,6.749-1.9A6.193,6.193,0,0,0,2648.429,1378.3Z" transform="translate(-2584.643 -1304.945)" fill="#ffb27d"/>
          <path id="Path_959" data-name="Path 959" d="M2669.921,1314.544v0c-.032-.322-.074-.66-.119-1.009-1.411,2.932-5.2,6.492-6.853,6.891-1.9.461-3.862-1.643-5.312-3.647,2.71-1.379,10.158-5.7,10.86-11.875.86-7.565,1.428,9.639,1.428,9.639Z" transform="translate(-2601.167 -1246.31)" fill="#a53d38"/>
        </g>
        <g id="Group_265" data-name="Group 265" transform="translate(0 1.22)">
          <rect id="Rectangle_69" data-name="Rectangle 69" width="77.619" height="3.481" rx="1.74" transform="translate(117.56 93.319) rotate(180)" fill="#916140"/>
          <g id="Group_260" data-name="Group 260" transform="translate(84.89 0)">
            <path id="Path_960" data-name="Path 960" d="M2606.922,1197.244h.288a.739.739,0,0,0,.719-.9l-35.639-156.154h-5.035l39,156.538A.689.689,0,0,0,2606.922,1197.244Z" transform="translate(-2567.255 -1040.185)" fill="#916140"/>
          </g>
          <g id="Group_261" data-name="Group 261" transform="translate(19.595 0)">
            <path id="Path_961" data-name="Path 961" d="M2297.469,1197.244h.288a.74.74,0,0,0,.72-.9l-35.639-156.154H2257.8l39,156.538A.688.688,0,0,0,2297.469,1197.244Z" transform="translate(-2257.803 -1040.185)" fill="#916140"/>
          </g>
          <path id="Path_962" data-name="Path 962" d="M2275.445,1133.5h68.2l-20.417-93.319h-68.856Z" transform="translate(-2235.504 -1040.185)" fill="#ce9a78"/>
          <path id="Path_963" data-name="Path 963" d="M2309.373,1151.41h56.055l-16.706-80.921h-56.666Z" transform="translate(-2265.234 -1064.095)" fill="#e5bd9e"/>
          <path id="Path_964" data-name="Path 964" d="M2262.648,1047.276h68.728l-1.573-7.092h-67.155Z" transform="translate(-2242.031 -1040.185)" fill="#c6916d"/>
          <g id="Group_264" data-name="Group 264" transform="translate(0 0)">
            <g id="Group_262" data-name="Group 262" transform="translate(63.16)">
              <path id="Path_965" data-name="Path 965" d="M2465.761,1196.538l23.123-156.353h-5.724l-18.883,156.325a.67.67,0,0,0,.656.731h.006A.813.813,0,0,0,2465.761,1196.538Z" transform="translate(-2464.272 -1040.185)" fill="#c6916d"/>
            </g>
            <path id="Path_966" data-name="Path 966" d="M2491.355,1040.185l1.573,7.086-23.757,148.881a1.284,1.284,0,0,1-1.3,1.088h-.471Z" transform="translate(-2403.583 -1040.185)" fill="#916140"/>
            <g id="Group_263" data-name="Group 263">
              <path id="Path_967" data-name="Path 967" d="M2166.425,1196.538l22.434-156.353h-5.035l-18.883,156.325a.669.669,0,0,0,.656.731h.006A.813.813,0,0,0,2166.425,1196.538Z" transform="translate(-2164.937 -1040.185)" fill="#c6916d"/>
            </g>
            <path id="Path_968" data-name="Path 968" d="M2191.33,1040.185l2.262,7.086-23.757,148.881a1.285,1.285,0,0,1-1.3,1.088h-.471Z" transform="translate(-2167.407 -1040.185)" fill="#916140"/>
            <path id="Path_969" data-name="Path 969" d="M2236.318,1306.887h62.26l-.333-3.8h-62.26Z" transform="translate(-2220.994 -1247.617)" fill="#c6916d"/>
          </g>
          <path id="Path_970" data-name="Path 970" d="M2601.287,1133.5h3.077l-21.3-93.319h-2.153Z" transform="translate(-2493.142 -1040.185)" fill="#916140"/>
        </g>
      </g>
    </g>
    <g id="Group_269" data-name="Group 269" transform="translate(392.925 519.403)">
      <path id="Path_971" data-name="Path 971" d="M1448.876,1669.667l-.037.549-.051.762-1.51,22.176h-19.663l-1.892-22.178-.088-1.029-.024-.28Z" transform="translate(-1425.344 -1669.666)" fill="#2b478b"/>
      <path id="Path_972" data-name="Path 972" d="M1499.512,1669.667l-.037.549-.05.762-1.51,22.176h-8.125l2.552-23.487Z" transform="translate(-1475.979 -1669.666)" fill="#33579e"/>
      <path id="Path_973" data-name="Path 973" d="M1448.929,1671.261l-.051.762c-.855-.085-7.8-.757-11.234-.757-3.416,0-10.84.663-11.831.754l-.088-1.029Z" transform="translate(-1425.434 -1670.711)" fill="#233862"/>
      <path id="Path_974" data-name="Path 974" d="M1448.221,1670.217h-23.6a.279.279,0,0,1-.278-.278h0a.279.279,0,0,1,.278-.278h23.6a.279.279,0,0,1,.277.278h0A.279.279,0,0,1,1448.221,1670.217Z" transform="translate(-1424.344 -1669.662)" fill="#2b478b"/>
      <g id="Group_268" data-name="Group 268" transform="translate(0 0.278)">
        <path id="Path_975" data-name="Path 975" d="M1435.709,1678.659c-10.183,0-11.352-7.6-11.365-7.681h0c.054.3,1.691,7.394,11.893,7.141,10.243-.262,12.245-7.023,12.261-7.093h0c-.017.073-1.6,7.354-12.247,7.626Q1435.976,1678.659,1435.709,1678.659Z" transform="translate(-1424.344 -1670.978)" fill="#f99746"/>
      </g>
      <path id="Path_976" data-name="Path 976" d="M1469.891,1702.495h-3.851a.875.875,0,0,1-.872-.872h0a.874.874,0,0,1,.872-.871h3.851a.874.874,0,0,1,.872.871h0A.875.875,0,0,1,1469.891,1702.495Z" transform="translate(-1456.554 -1694.191)" fill="#f99746"/>
      <path id="Path_977" data-name="Path 977" d="M1453.866,1774.837h-20.105l.144-1.642h19.915Z" transform="translate(-1431.774 -1751.35)" fill="#233862"/>
    </g>
    <g id="Group_271" data-name="Group 271" transform="translate(418.922 528.231)">
      <path id="Path_978" data-name="Path 978" d="M1562.869,1711.5l-.023.344-.034.475-.118,1.751-.563,8.267-.26,3.822H1549.6l-.327-3.822-.7-8.24-.152-1.781-.054-.641-.014-.175Z" transform="translate(-1548.18 -1711.502)" fill="#ed7d2b"/>
      <path id="Path_979" data-name="Path 979" d="M1594.467,1711.5l-.023.342-.032.475-.943,13.841H1588.4l1.593-14.659Z" transform="translate(-1579.779 -1711.504)" fill="#f99746"/>
      <path id="Path_980" data-name="Path 980" d="M1562.9,1712.5l-.032.475c-.534-.053-4.869-.472-7.012-.472s-6.766.414-7.384.47l-.055-.642Z" transform="translate(-1548.232 -1712.157)" fill="#d36922"/>
      <path id="Path_981" data-name="Path 981" d="M1562.454,1711.848h-14.729a.174.174,0,0,1-.173-.173h0a.174.174,0,0,1,.173-.173h14.729a.174.174,0,0,1,.173.173h0A.174.174,0,0,1,1562.454,1711.848Z" transform="translate(-1547.552 -1711.502)" fill="#f99746"/>
      <g id="Group_270" data-name="Group 270" transform="translate(0 0.173)">
        <path id="Path_982" data-name="Path 982" d="M1554.645,1717.117c-6.355,0-7.085-4.746-7.093-4.794h0c.033.19,1.055,4.615,7.423,4.457,6.393-.164,7.642-4.383,7.653-4.427h0c-.011.046-1,4.589-7.644,4.759Q1554.812,1717.117,1554.645,1717.117Z" transform="translate(-1547.552 -1712.323)" fill="#33579e"/>
      </g>
      <path id="Path_983" data-name="Path 983" d="M1575.979,1731.993h-2.4a.546.546,0,0,1-.544-.544h0a.545.545,0,0,1,.544-.544h2.4a.546.546,0,0,1,.544.544h0A.546.546,0,0,1,1575.979,1731.993Z" transform="translate(-1567.655 -1726.811)" fill="#2b478b"/>
      <path id="Path_984" data-name="Path 984" d="M1565.978,1777.145h-12.548l.09-1.025h12.43Z" transform="translate(-1552.189 -1762.485)" fill="#d36922"/>
    </g>
    <path id="Path_985" data-name="Path 985" d="M2024.847,751.017c-9.031,5.1-9.208.3-11.263-1.75-2.055-2.08-13.166,14.586-16.337,16.463-3.171,1.9,6.495-16.159,3.805-15.677s-9.386,6.469-9.386,6.469l.025-.1c7.712-17.326,13.14-31.684,15.373-31.684C2009.221,724.736,2016.857,738,2024.847,751.017Z" transform="translate(-1479.036 -404.714)" fill="#fff5ee"/>
    <path id="Path_986" data-name="Path 986" d="M1521.6,1119.95c-.609-.025-8.447-.3-10.274,0-1.9.33-9.031,14.688-10.654,12.049-1.6-2.638-7.331,3.3-7.331,3.3l.076-.178c4.718-10.553,9.69-19.837,12.81-20.547C1510.54,1113.608,1515.157,1116.83,1521.6,1119.95Z" transform="translate(-1085.857 -712.157)" fill="#fff5ee"/>
    <rect id="Rectangle_70" data-name="Rectangle 70" width="617.389" height="1.93" rx="0.965" transform="translate(117.094 542.89)" fill="#2e3552"/>
  </g>
</svg>
