<svg xmlns="http://www.w3.org/2000/svg" width="54.913" height="49.48" viewBox="0 0 54.913 49.48">
  <g id="Group_17" data-name="Group 17" transform="translate(-148 -24)">
    <g id="Group_2" data-name="Group 2" transform="translate(148 24)">
      <g id="Group_1" data-name="Group 1" transform="translate(0 0)">
        <path id="Path_1" data-name="Path 1" d="M191.351,54.916c.052.122.377.1,0,.365-1.237.775-2.474.781-3.795,1.277l-.045.234a18.365,18.365,0,0,1-3.432.248,19.3,19.3,0,0,1-6.39-.511c.031.09.038.168-.177.136a13.774,13.774,0,0,1-3.17-1.306c-.174-.079-.354-.147-.521-.231a.306.306,0,0,0-.263.041,13.64,13.64,0,0,1-1.331-.883,19.426,19.426,0,0,1-6.9-6.962,19.655,19.655,0,0,1-2.612-10.318,15.754,15.754,0,0,1,.508-4.776,18.691,18.691,0,0,1,3.737-6.541c-.4-.1.212-1.3.933-2.375.7-1.078,1.488-2.023.778-1.952,1.272-1.062,3.435-2.271,3.46-2.5a2.425,2.425,0,0,1,.973-1.564,11.442,11.442,0,0,1,4.329-2.269c1.809-.562,4.695-.436,5.337-.542,1.03-.24-2.429-.379-1.412-.616a24.417,24.417,0,0,0-18.186,9.357,24.984,24.984,0,0,0-4.594,9.37,25.576,25.576,0,0,0-.363,10.523,27.9,27.9,0,0,0,2.828,7.482,25.329,25.329,0,0,0,9.362,9.45,24.944,24.944,0,0,0,13.5,3.267,25.749,25.749,0,0,0,9.566-2.359l.667-.351a22.527,22.527,0,0,0,5.779-4.225,22.989,22.989,0,0,0,3.864-5.233,26.988,26.988,0,0,0,1.819-4.784,19.9,19.9,0,0,1-1.23,1.774,14.081,14.081,0,0,0,1.461-3.765c.4-1.776.261-2.2.025-2.023s-.679.931-1.125,1.482c-.52.821-.427-.479-1.129.81a23.45,23.45,0,0,0,.808-2.476c-.086-.083-.263.7-.474,1.391s-.453,1.3-.491.9a14.885,14.885,0,0,0,.841-3.012,8.488,8.488,0,0,0-.667,1.771c-.276.774-.567,1.472-.68,1.344.166-.508,1.276-2.6.926-2.89a9.974,9.974,0,0,0-.464,1.4,8.953,8.953,0,0,0,.386-3.162c-.1-.465-.28-.2-.718,1.081a13.518,13.518,0,0,0,.453-3.173l-.005.007c-.02.485-.136,1.313-.206,1.759a15.543,15.543,0,0,0,.13-1.645l-.16.283-.17,1.229c.041-.359.088-.719.093-1.078l-.4.886c-.36,1.241-.968,2.337-1.18,2.989a24.408,24.408,0,0,1-4.037,7.414A19.63,19.63,0,0,1,191.351,54.916Z" transform="translate(-157.836 -13.87)" fill="#fff"/>
      </g>
      <path id="Path_2" data-name="Path 2" d="M208.94,30.623c.026.026.026.065,0,.079-.092.065-.144.17-.275.17-.052,0-.092.026-.092.079-.013.157-.131.249-.275.327-.118.065-.118.052-.013.144-.039.052-.157.065-.131.183.013.052-.1.118-.183.144s-.144.065-.118.17a.142.142,0,0,1-.013.065c-.183.2-.236.485-.55.589a.431.431,0,0,0-.3.314c0,.013-.013.026-.026.039-.183.118-.249.314-.406.445a.222.222,0,0,0-.092.157.178.178,0,0,1-.092.144c-.052.026-.092.065-.052.131a.079.079,0,0,1-.013.052c-.065.039-.079.118-.157.157.039.092-.039.131-.079.2l-.013.013c-.092.052,0,.21-.1.21-.131,0-.144.092-.21.144l-.236.157a.262.262,0,0,0-.1.249c0,.052.013.092-.013.131a1.591,1.591,0,0,1-.655.694,1.315,1.315,0,0,0-.288.249c-.052.052-.079.118-.17.144-.039-.052.026-.079.039-.118s0-.052-.026-.079a.063.063,0,0,0-.092.013c-.026.039-.092.065-.1.1a.437.437,0,0,1-.21.249c.026.065.1,0,.118.052s-.026.065-.052.092a.4.4,0,0,0-.157.17c-.039.079-.079.079-.144,0-.026-.039-.026-.1-.092-.092a.194.194,0,0,0-.157.1.278.278,0,0,1-.3.223.072.072,0,0,0-.079.052c-.039.092-.131.144-.21.21s-.157.092-.144.183c0,.052-.026.079-.079.066a.173.173,0,0,0-.2.17.113.113,0,0,1-.039.079,4.206,4.206,0,0,1-.851.655,5.078,5.078,0,0,0-.432.3,5.5,5.5,0,0,1-1.454.76c-.249.079-.5.118-.72.21a.424.424,0,0,1-.223.039c-.3,0-.6.013-.891.013a.4.4,0,0,1-.327-.1.57.57,0,0,0-.2-.1.523.523,0,0,1-.249-.144,4.185,4.185,0,0,1-.406-.432.991.991,0,0,1-.21-.694,3.826,3.826,0,0,1,.616-1.755,5.534,5.534,0,0,1,.354-.472c.039-.039.079-.079.066-.144-.079,0-.131.065-.183.092a3.449,3.449,0,0,0-.589.472.69.69,0,0,1-.262.2.633.633,0,0,0-.21.17c-.183.21-.432.367-.629.563a4.328,4.328,0,0,1-.393.288,3.232,3.232,0,0,0-.367.367,3.431,3.431,0,0,1-.393.367c-.223.21-.472.393-.707.589a2.141,2.141,0,0,1-.5.314.4.4,0,0,0-.092.065.539.539,0,0,1-.485.131,1.058,1.058,0,0,1-.655-.21.435.435,0,0,0-.079-.039.831.831,0,0,1-.432-.314.416.416,0,0,0-.131-.131,1.128,1.128,0,0,1-.406-.419.638.638,0,0,1-.065-.485,3.871,3.871,0,0,1,.537-1.428c.236-.367.485-.72.734-1.074-.039-.039-.052-.013-.079,0-.327.17-.655.367-.982.563a.355.355,0,0,0-.131.249c-.052-.131-.131-.118-.2-.065-.262.183-.55.327-.825.485-.354.21-.694.419-1.061.6a3.775,3.775,0,0,1-.5.288c-.131.052-.249.118-.38.183a.1.1,0,0,1-.026.052,4.2,4.2,0,0,1-.851.655,5.083,5.083,0,0,0-.432.3,5.5,5.5,0,0,1-1.454.76c-.249.079-.5.118-.72.21a.423.423,0,0,1-.223.039c-.3,0-.6.013-.891.013a.4.4,0,0,1-.327-.1.57.57,0,0,0-.2-.1.523.523,0,0,1-.249-.144,4.179,4.179,0,0,1-.406-.432.991.991,0,0,1-.21-.694,3.826,3.826,0,0,1,.616-1.755,5.533,5.533,0,0,1,.354-.472c.039-.039.079-.079.066-.144-.079,0-.131.065-.183.092a3.449,3.449,0,0,0-.589.472.69.69,0,0,1-.262.2.633.633,0,0,0-.21.17c-.183.21-.432.367-.629.563a4.332,4.332,0,0,1-.393.288,3.231,3.231,0,0,0-.367.367,3.431,3.431,0,0,1-.393.367c-.223.21-.472.393-.707.589a2.141,2.141,0,0,1-.5.314.4.4,0,0,0-.092.065.539.539,0,0,1-.485.131,1.057,1.057,0,0,1-.655-.21.437.437,0,0,0-.079-.039.831.831,0,0,1-.432-.314.416.416,0,0,0-.131-.131,1.128,1.128,0,0,1-.406-.419.638.638,0,0,1-.065-.485,3.871,3.871,0,0,1,.537-1.428c.236-.367.485-.72.734-1.074-.039-.039-.052-.013-.079,0-.327.17-.655.367-.982.563a.355.355,0,0,0-.131.249c-.052-.131-.131-.118-.2-.065-.262.183-.55.327-.825.485-.354.21-.694.419-1.061.6a3.777,3.777,0,0,1-.5.288,7.246,7.246,0,0,1-1.035.445,3.763,3.763,0,0,1-1.664.1,1.4,1.4,0,0,1-.851-.485l-.039-.039a.887.887,0,0,1-.21-1.022.534.534,0,0,0,.013-.288c-.013-.079.026-.092.1-.065a1.119,1.119,0,0,1,.314.118.366.366,0,0,0,.288.026,3.042,3.042,0,0,0,.629-.275c.314-.2.629-.393.93-.589s.563-.406.865-.589c.17-.092.3-.223.472-.314.288-.131.472-.38.76-.511a.5.5,0,0,0,.183-.144.324.324,0,0,1,.21-.131.132.132,0,0,0,.131-.079,1.085,1.085,0,0,1,.432-.327.547.547,0,0,0,.21-.118,3.743,3.743,0,0,1,.524-.367,3.152,3.152,0,0,0,.655-.432c.079-.092.223-.118.314-.2a5.861,5.861,0,0,1,.786-.458c.21-.131.314-.354.5-.511.052-.052.039-.144.052-.21a.392.392,0,0,1,.223-.275.381.381,0,0,0,.144-.144c.092-.17.21-.21.419-.17a.647.647,0,0,0,.354-.039.512.512,0,0,1,.511.1.391.391,0,0,1,.131.223v.065a.621.621,0,0,0,.327.511,1.791,1.791,0,0,1,.458.485.647.647,0,0,1,.1.537.325.325,0,0,0,0,.223.247.247,0,0,1,.026.1c-.052.367.092.707.065,1.074a.046.046,0,0,0,.026.013h.052c.328-.236.681-.432,1.009-.655a4.553,4.553,0,0,1,.72-.472,2.828,2.828,0,0,0,.38-.275c.039-.026.079-.065.118-.092a4.316,4.316,0,0,0,.851-.511c.341-.21.707-.393,1.048-.6a2.232,2.232,0,0,1,.458-.249,7.892,7.892,0,0,1,.982-.341,1.543,1.543,0,0,1,.694.092,1.2,1.2,0,0,1,.694.563.278.278,0,0,1,.039.092.447.447,0,0,0,.026.367c-.066.092-.013.21-.079.3a.249.249,0,0,0-.039.118c-.013.066.039,0,.039.013a2.282,2.282,0,0,1,.2.17c.013.026-.013.052-.026.092-.039.079-.092.157-.131.236-.026.039-.065.092.026.118.065.026.026.079.013.118a.924.924,0,0,0-.079.314.264.264,0,0,1-.118.2.56.56,0,0,0-.144.275.539.539,0,0,1-.131.275.233.233,0,0,0-.052.131,7.259,7.259,0,0,0,.773-.419c.445-.249.917-.485,1.375-.72a2.64,2.64,0,0,0,.6-.314,1.014,1.014,0,0,1,.341-.157.872.872,0,0,0,.419-.223.887.887,0,0,1,.3-.183,7.164,7.164,0,0,0,.9-.432c.1-.1.183-.223.3-.327.052-.052.039-.144.052-.21a.392.392,0,0,1,.223-.275.381.381,0,0,0,.144-.144c.092-.17.21-.21.419-.17a.647.647,0,0,0,.354-.039.512.512,0,0,1,.511.1.392.392,0,0,1,.131.223v.065a.621.621,0,0,0,.327.511,1.791,1.791,0,0,1,.459.485.647.647,0,0,1,.1.537.325.325,0,0,0,0,.223.247.247,0,0,1,.026.1c-.052.367.092.707.065,1.074a.046.046,0,0,0,.026.013h.052c.327-.236.681-.432,1.009-.655a4.551,4.551,0,0,1,.72-.472,2.829,2.829,0,0,0,.38-.275c.039-.026.079-.065.118-.092a4.317,4.317,0,0,0,.851-.511c.341-.21.707-.393,1.048-.6a2.231,2.231,0,0,1,.458-.249,7.892,7.892,0,0,1,.982-.341,1.543,1.543,0,0,1,.694.092,1.2,1.2,0,0,1,.694.563.278.278,0,0,1,.039.092.447.447,0,0,0,.026.367c-.065.092-.013.21-.079.3a.249.249,0,0,0-.039.118c-.013.066.039,0,.039.013a2.278,2.278,0,0,1,.2.17c.013.026-.013.052-.026.092-.039.079-.092.157-.131.236-.026.039-.065.092.026.118.066.026.026.079.013.118a.925.925,0,0,0-.079.314.264.264,0,0,1-.118.2.56.56,0,0,0-.144.275.54.54,0,0,1-.131.275.233.233,0,0,0-.052.131,7.26,7.26,0,0,0,.773-.419c.445-.249.917-.485,1.375-.72a2.64,2.64,0,0,0,.6-.314,1.014,1.014,0,0,1,.341-.157.871.871,0,0,0,.419-.223.888.888,0,0,1,.3-.183,11.64,11.64,0,0,0,1.153-.55c.419-.223.825-.445,1.258-.629a2.1,2.1,0,0,0,.393-.17A.046.046,0,0,1,208.94,30.623Z" transform="translate(-154.046 -8.768)" fill="#fff"/>
    </g>
  </g>
</svg>
