<svg xmlns="http://www.w3.org/2000/svg" width="180.742" height="50" viewBox="0 0 180.742 50">
  <g id="Group_9" data-name="Group 9" transform="translate(-156.258 -999)">
    <text id="Oriell" transform="translate(233 1038)" fill="#bfffff" font-size="38" font-family="PTSerif-Bold, PT Serif" font-weight="700"><tspan x="0" y="0">Oriell</tspan></text>
    <g id="Group_8" data-name="Group 8" transform="translate(-1.578 985.571)">
      <g id="Group_1" data-name="Group 1" transform="translate(157.836 13.87)">
        <path id="Path_1" data-name="Path 1" d="M191.4,54.981c.052.122.378.1,0,.366-1.239.777-2.478.782-3.8,1.279l-.045.235a18.4,18.4,0,0,1-3.438.248,19.328,19.328,0,0,1-6.4-.512c.031.091.038.168-.177.136a13.8,13.8,0,0,1-3.175-1.308c-.174-.079-.354-.147-.522-.231a.307.307,0,0,0-.264.041,13.661,13.661,0,0,1-1.333-.884,19.457,19.457,0,0,1-6.908-6.973,19.687,19.687,0,0,1-2.616-10.335,15.779,15.779,0,0,1,.509-4.784,18.721,18.721,0,0,1,3.743-6.551c-.4-.1.213-1.305.934-2.379.7-1.08,1.49-2.026.779-1.955,1.274-1.064,3.44-2.275,3.465-2.506a2.429,2.429,0,0,1,.975-1.567,11.46,11.46,0,0,1,4.336-2.272c1.812-.563,4.7-.437,5.345-.543,1.031-.24-2.432-.379-1.414-.617a24.456,24.456,0,0,0-18.215,9.372,25.024,25.024,0,0,0-4.6,9.385,25.617,25.617,0,0,0-.363,10.54,27.943,27.943,0,0,0,2.833,7.494,25.369,25.369,0,0,0,9.377,9.465,24.984,24.984,0,0,0,13.52,3.272,25.79,25.79,0,0,0,9.582-2.363l.668-.352a22.564,22.564,0,0,0,5.789-4.231,23.026,23.026,0,0,0,3.87-5.242,27.031,27.031,0,0,0,1.822-4.792,19.934,19.934,0,0,1-1.232,1.776,14.1,14.1,0,0,0,1.463-3.771c.4-1.779.261-2.207.025-2.026s-.68.933-1.127,1.484c-.521.823-.428-.48-1.131.811a23.486,23.486,0,0,0,.81-2.48c-.087-.083-.264.7-.475,1.393s-.454,1.3-.492.9a14.909,14.909,0,0,0,.842-3.016,8.5,8.5,0,0,0-.668,1.774c-.277.775-.568,1.475-.681,1.346.167-.509,1.278-2.6.928-2.894a9.987,9.987,0,0,0-.464,1.4,8.968,8.968,0,0,0,.387-3.167c-.1-.466-.281-.2-.719,1.082a13.54,13.54,0,0,0,.454-3.178l-.005.007c-.02.485-.136,1.315-.206,1.762a15.565,15.565,0,0,0,.13-1.648l-.16.283-.171,1.231c.041-.36.088-.72.093-1.08l-.4.887c-.361,1.242-.97,2.341-1.182,2.994a24.447,24.447,0,0,1-4.044,7.426A19.661,19.661,0,0,1,191.4,54.981Z" transform="translate(-157.836 -13.87)" fill="#fff"/>
      </g>
      <path id="Path_2" data-name="Path 2" d="M209,30.623c.026.026.026.066,0,.079-.092.066-.144.171-.276.171-.052,0-.092.026-.092.079-.013.157-.131.249-.276.328-.118.066-.118.052-.013.144-.039.052-.157.066-.131.184.013.052-.1.118-.184.144s-.144.066-.118.171a.142.142,0,0,1-.013.066c-.184.2-.236.485-.551.59a.432.432,0,0,0-.3.315c0,.013-.013.026-.026.039-.184.118-.249.315-.407.446a.222.222,0,0,0-.092.157.178.178,0,0,1-.092.144c-.052.026-.092.066-.052.131a.079.079,0,0,1-.013.052c-.066.039-.079.118-.157.157.039.092-.039.131-.079.2l-.013.013c-.092.052,0,.21-.1.21-.131,0-.144.092-.21.144l-.236.157a.263.263,0,0,0-.1.249c0,.052.013.092-.013.131a1.594,1.594,0,0,1-.656.7,1.317,1.317,0,0,0-.289.249c-.052.052-.079.118-.171.144-.039-.052.026-.079.039-.118s0-.052-.026-.079a.063.063,0,0,0-.092.013c-.026.039-.092.066-.1.1a.437.437,0,0,1-.21.249c.026.066.1,0,.118.052s-.026.066-.052.092a.4.4,0,0,0-.157.171c-.039.079-.079.079-.144,0-.026-.039-.026-.1-.092-.092a.194.194,0,0,0-.157.1.278.278,0,0,1-.3.223.072.072,0,0,0-.079.052c-.039.092-.131.144-.21.21s-.157.092-.144.184c0,.052-.026.079-.079.066a.173.173,0,0,0-.2.171.113.113,0,0,1-.039.079,4.213,4.213,0,0,1-.853.656,5.085,5.085,0,0,0-.433.3,5.507,5.507,0,0,1-1.456.761c-.249.079-.5.118-.722.21a.424.424,0,0,1-.223.039c-.3,0-.6.013-.892.013a.4.4,0,0,1-.328-.1.571.571,0,0,0-.2-.1.524.524,0,0,1-.249-.144,4.192,4.192,0,0,1-.407-.433.992.992,0,0,1-.21-.7,3.832,3.832,0,0,1,.617-1.758,5.539,5.539,0,0,1,.354-.472c.039-.039.079-.079.066-.144-.079,0-.131.066-.184.092a3.455,3.455,0,0,0-.59.472.691.691,0,0,1-.262.2.634.634,0,0,0-.21.171c-.184.21-.433.367-.63.564a4.334,4.334,0,0,1-.394.289,3.237,3.237,0,0,0-.367.367,3.436,3.436,0,0,1-.394.367c-.223.21-.472.394-.708.59a2.145,2.145,0,0,1-.5.315.4.4,0,0,0-.092.066.54.54,0,0,1-.485.131,1.059,1.059,0,0,1-.656-.21.436.436,0,0,0-.079-.039.833.833,0,0,1-.433-.315.417.417,0,0,0-.131-.131,1.129,1.129,0,0,1-.407-.42.639.639,0,0,1-.066-.485,3.877,3.877,0,0,1,.538-1.43c.236-.367.485-.722.735-1.076-.039-.039-.052-.013-.079,0-.328.171-.656.367-.984.564a.355.355,0,0,0-.131.249c-.052-.131-.131-.118-.2-.066-.262.184-.551.328-.827.485-.354.21-.7.42-1.063.6a3.782,3.782,0,0,1-.5.289c-.131.052-.249.118-.38.184a.1.1,0,0,1-.026.052,4.211,4.211,0,0,1-.853.656,5.092,5.092,0,0,0-.433.3,5.506,5.506,0,0,1-1.456.761c-.249.079-.5.118-.722.21a.424.424,0,0,1-.223.039c-.3,0-.6.013-.892.013a.4.4,0,0,1-.328-.1.571.571,0,0,0-.2-.1.523.523,0,0,1-.249-.144,4.188,4.188,0,0,1-.407-.433.992.992,0,0,1-.21-.7,3.832,3.832,0,0,1,.617-1.758,5.542,5.542,0,0,1,.354-.472c.039-.039.079-.079.066-.144-.079,0-.131.066-.184.092a3.455,3.455,0,0,0-.59.472.691.691,0,0,1-.262.2.634.634,0,0,0-.21.171c-.184.21-.433.367-.63.564a4.342,4.342,0,0,1-.394.289,3.236,3.236,0,0,0-.367.367,3.436,3.436,0,0,1-.394.367c-.223.21-.472.394-.708.59a2.145,2.145,0,0,1-.5.315.4.4,0,0,0-.092.066.54.54,0,0,1-.485.131,1.059,1.059,0,0,1-.656-.21.437.437,0,0,0-.079-.039.833.833,0,0,1-.433-.315.417.417,0,0,0-.131-.131,1.13,1.13,0,0,1-.407-.42.639.639,0,0,1-.066-.485,3.878,3.878,0,0,1,.538-1.43c.236-.367.485-.722.735-1.076-.039-.039-.052-.013-.079,0-.328.171-.656.367-.984.564a.355.355,0,0,0-.131.249c-.052-.131-.131-.118-.2-.066-.262.184-.551.328-.827.485-.354.21-.7.42-1.063.6a3.783,3.783,0,0,1-.5.289,7.256,7.256,0,0,1-1.037.446,3.769,3.769,0,0,1-1.666.1,1.4,1.4,0,0,1-.853-.485l-.039-.039a.888.888,0,0,1-.21-1.023.534.534,0,0,0,.013-.289c-.013-.079.026-.092.1-.066a1.121,1.121,0,0,1,.315.118.367.367,0,0,0,.289.026,3.046,3.046,0,0,0,.63-.276c.315-.2.63-.394.932-.59s.564-.407.866-.59c.171-.092.3-.223.472-.315.289-.131.472-.38.761-.512a.5.5,0,0,0,.184-.144.325.325,0,0,1,.21-.131.132.132,0,0,0,.131-.079,1.087,1.087,0,0,1,.433-.328.547.547,0,0,0,.21-.118,3.747,3.747,0,0,1,.525-.367,3.157,3.157,0,0,0,.656-.433c.079-.092.223-.118.315-.2a5.87,5.87,0,0,1,.787-.459c.21-.131.315-.354.5-.512.052-.052.039-.144.052-.21a.393.393,0,0,1,.223-.276.382.382,0,0,0,.144-.144c.092-.171.21-.21.42-.171a.648.648,0,0,0,.354-.039.513.513,0,0,1,.512.1.392.392,0,0,1,.131.223v.066a.622.622,0,0,0,.328.512,1.793,1.793,0,0,1,.459.485.648.648,0,0,1,.1.538.326.326,0,0,0,0,.223.247.247,0,0,1,.026.1c-.052.367.092.708.066,1.076a.046.046,0,0,0,.026.013h.052c.328-.236.682-.433,1.01-.656a4.561,4.561,0,0,1,.722-.472,2.832,2.832,0,0,0,.38-.276c.039-.026.079-.066.118-.092a4.324,4.324,0,0,0,.853-.512c.341-.21.708-.394,1.05-.6a2.235,2.235,0,0,1,.459-.249,7.9,7.9,0,0,1,.984-.341,1.545,1.545,0,0,1,.7.092,1.206,1.206,0,0,1,.7.564.278.278,0,0,1,.039.092.448.448,0,0,0,.026.367c-.066.092-.013.21-.079.3a.249.249,0,0,0-.039.118c-.013.066.039,0,.039.013a2.286,2.286,0,0,1,.2.171c.013.026-.013.052-.026.092-.039.079-.092.157-.131.236-.026.039-.066.092.026.118.066.026.026.079.013.118a.926.926,0,0,0-.079.315.265.265,0,0,1-.118.2.561.561,0,0,0-.144.276.54.54,0,0,1-.131.276.233.233,0,0,0-.052.131,7.27,7.27,0,0,0,.774-.42c.446-.249.918-.485,1.378-.722a2.644,2.644,0,0,0,.6-.315,1.015,1.015,0,0,1,.341-.157.873.873,0,0,0,.42-.223.889.889,0,0,1,.3-.184,7.176,7.176,0,0,0,.905-.433c.1-.1.184-.223.3-.328.052-.052.039-.144.052-.21a.393.393,0,0,1,.223-.276.381.381,0,0,0,.144-.144c.092-.171.21-.21.42-.171a.648.648,0,0,0,.354-.039.513.513,0,0,1,.512.1.392.392,0,0,1,.131.223v.066a.622.622,0,0,0,.328.512,1.794,1.794,0,0,1,.459.485.648.648,0,0,1,.1.538.326.326,0,0,0,0,.223.247.247,0,0,1,.026.1c-.052.367.092.708.066,1.076a.046.046,0,0,0,.026.013h.052c.328-.236.682-.433,1.01-.656a4.558,4.558,0,0,1,.722-.472,2.834,2.834,0,0,0,.38-.276c.039-.026.079-.066.118-.092a4.324,4.324,0,0,0,.853-.512c.341-.21.709-.394,1.05-.6a2.234,2.234,0,0,1,.459-.249,7.9,7.9,0,0,1,.984-.341,1.546,1.546,0,0,1,.7.092,1.206,1.206,0,0,1,.7.564.278.278,0,0,1,.039.092.448.448,0,0,0,.026.367c-.066.092-.013.21-.079.3a.249.249,0,0,0-.039.118c-.013.066.039,0,.039.013a2.276,2.276,0,0,1,.2.171c.013.026-.013.052-.026.092-.039.079-.092.157-.131.236-.026.039-.066.092.026.118.066.026.026.079.013.118a.926.926,0,0,0-.079.315.264.264,0,0,1-.118.2.561.561,0,0,0-.144.276.54.54,0,0,1-.131.276.233.233,0,0,0-.053.131,7.27,7.27,0,0,0,.774-.42c.446-.249.918-.485,1.378-.722a2.644,2.644,0,0,0,.6-.315,1.015,1.015,0,0,1,.341-.157.873.873,0,0,0,.42-.223.889.889,0,0,1,.3-.184,11.658,11.658,0,0,0,1.155-.551c.42-.223.827-.446,1.26-.63a2.1,2.1,0,0,0,.394-.171A.046.046,0,0,1,209,30.623Z" transform="translate(3.816 5.137)" fill="#fff"/>
    </g>
  </g>
</svg>
