<svg xmlns="http://www.w3.org/2000/svg" width="68.135" height="48.261" viewBox="0 0 68.135 48.261">
  <path id="youtube" d="M66.627,10.4l.085.556a8.638,8.638,0,0,0-5.871-6l-.06-.014C55.47,3.5,34.1,3.5,34.1,3.5S12.776,3.472,7.41,4.942A8.641,8.641,0,0,0,1.5,10.893l-.014.06A94.972,94.972,0,0,0,1.57,44.869l-.088-.562a8.638,8.638,0,0,0,5.871,6l.06.014C12.719,51.762,34.1,51.762,34.1,51.762s21.317,0,26.686-1.445a8.64,8.64,0,0,0,5.916-5.95l.014-.06a88.759,88.759,0,0,0,1.419-16.034c0-.207,0-.417,0-.627,0-.193,0-.423,0-.653a91.572,91.572,0,0,0-1.507-16.6ZM27.277,38v-20.7L45.066,27.659Z" transform="translate(0 -3.5)" fill="#fff"/>
</svg>
